<svg width="22" height="38" viewBox="0 0 22 38" fill="none" xmlns="http://www.w3.org/2000/svg">
<path fill-rule="evenodd" clip-rule="evenodd" d="M8.12283 2.94783C10.0097 1.06068 12.5689 0.000315768 15.2375 0H20.4125C20.7937 0 21.1594 0.15145 21.429 0.421034C21.6985 0.690617 21.85 1.05625 21.85 1.4375V8.3375C21.85 8.71875 21.6985 9.08438 21.429 9.35397C21.1594 9.62355 20.7937 9.775 20.4125 9.775H15.2375C15.1997 9.775 15.1624 9.78244 15.1275 9.79688C15.0926 9.81133 15.0609 9.83251 15.0342 9.85921C15.0075 9.8859 14.9863 9.9176 14.9719 9.95248C14.9574 9.98736 14.95 10.0247 14.95 10.0625V13.8H20.4125C20.631 13.7999 20.8467 13.8496 21.0432 13.9453C21.2396 14.0411 21.4116 14.1804 21.5462 14.3526C21.6807 14.5248 21.7742 14.7255 21.8195 14.9392C21.8649 15.153 21.8609 15.3743 21.8078 15.5863L20.0828 22.4863C20.005 22.7974 19.8254 23.0736 19.5726 23.2709C19.3197 23.4681 19.0082 23.5752 18.6875 23.575H14.95V35.9375C14.95 36.3187 14.7985 36.6844 14.529 36.954C14.2594 37.2235 13.8937 37.375 13.5125 37.375H6.6125C6.23125 37.375 5.86562 37.2235 5.59603 36.954C5.32645 36.6844 5.175 36.3187 5.175 35.9375V23.575H1.4375C1.05625 23.575 0.690617 23.4235 0.421034 23.154C0.15145 22.8844 0 22.5187 0 22.1375V15.2375C0 15.0487 0.0371819 14.8618 0.109423 14.6874C0.181664 14.513 0.28755 14.3545 0.421034 14.221C0.554518 14.0875 0.712987 13.9817 0.887392 13.9094C1.0618 13.8372 1.24872 13.8 1.4375 13.8H5.175V10.0625C5.17531 7.39388 6.23568 4.83467 8.12283 2.94783ZM15.2375 2.875C13.3313 2.875 11.5031 3.63225 10.1552 4.98017C8.80725 6.32809 8.05 8.15626 8.05 10.0625V15.2375C8.05 15.6187 7.89855 15.9844 7.62897 16.254C7.35938 16.5235 6.99375 16.675 6.6125 16.675H2.875V20.7H6.6125C6.99375 20.7 7.35938 20.8514 7.62897 21.121C7.89855 21.3906 8.05 21.7563 8.05 22.1375V34.5H12.075V22.1375C12.075 21.7563 12.2264 21.3906 12.496 21.121C12.7656 20.8514 13.1313 20.7 13.5125 20.7H17.5643L18.5706 16.675H13.5125C13.1313 16.675 12.7656 16.5235 12.496 16.254C12.2264 15.9844 12.075 15.6187 12.075 15.2375V10.0625C12.075 9.22375 12.4082 8.41936 13.0013 7.82627C13.5944 7.23319 14.3988 6.9 15.2375 6.9H18.975V2.875H15.2375Z" fill="#1877F2"/>
</svg>
