<svg width="42" height="43" viewBox="0 0 42 43" fill="none" xmlns="http://www.w3.org/2000/svg">
<path opacity="0.987" fill-rule="evenodd" clip-rule="evenodd" d="M18.2502 0.186047C20.4706 -0.0620156 21.7844 -0.0620156 24.1701 0.186047C28.393 0.811088 32.3078 2.7631 35.3482 5.7598C33.2936 7.70184 31.2661 9.67223 29.2661 11.6704C25.4359 8.42417 21.1606 7.67488 16.4403 9.42255C12.9776 11.015 10.5664 13.5957 9.20668 17.1645C6.98465 15.5103 4.79157 13.8175 2.62843 12.0869C2.4781 12.0078 2.3064 11.9788 2.13843 12.0042C5.57455 5.37903 10.9441 1.43861 18.2472 0.182984" fill="#F44336"/>
<path opacity="0.997" fill-rule="evenodd" clip-rule="evenodd" d="M2.13227 12.0042C2.30581 11.9777 2.47017 12.0052 2.62533 12.0869C4.78848 13.8175 6.98156 15.5103 9.20358 17.1645C8.85392 18.5551 8.63351 19.975 8.54515 21.4061C8.62069 22.7903 8.84017 24.1491 9.20358 25.4823L2.29765 30.9795C-0.709728 24.6952 -0.764853 18.3701 2.13227 12.0042Z" fill="#FFC107"/>
<path opacity="0.999" fill-rule="evenodd" clip-rule="evenodd" d="M35.0205 37.6373C32.8702 35.741 30.619 33.9621 28.2768 32.3086C30.6247 30.6508 32.0498 28.3763 32.5521 25.4853H21.0463V17.4953C27.6817 17.4401 34.314 17.4963 40.9433 17.6637C42.201 24.4931 40.7483 30.6508 36.5854 36.1367C36.0904 36.6629 35.566 37.1638 35.0205 37.6373Z" fill="#448AFF"/>
<path opacity="0.993" fill-rule="evenodd" clip-rule="evenodd" d="M9.20355 25.4854C11.7148 31.7267 16.3188 34.6402 23.0154 34.2257C24.8953 34.0081 26.6976 33.3514 28.2768 32.3086C30.6206 33.9664 32.8685 35.7427 35.0204 37.6374C31.6108 40.7012 27.2635 42.5192 22.6877 42.7946C21.6481 42.8777 20.6036 42.8777 19.564 42.7946C11.7689 41.8759 6.01344 37.9375 2.29761 30.9795L9.20355 25.4854Z" fill="#43A047"/>
</svg>
